<?xml version="1.0" encoding="UTF-8" standalone="no"?>
<!DOCTYPE svg PUBLIC "-//W3C//DTD SVG 1.1//EN" "http://www.w3.org/Graphics/SVG/1.1/DTD/svg11.dtd">
<svg xmlns="http://www.w3.org/2000/svg" version="1.1" viewBox="0.00 0.00 500.00 116.00">
<path fill="#eed109" d="
  M 127.30 100.78
  C 105.87 102.28 87.42 89.41 80.94 69.01
  Q 80.52 67.67 80.66 66.23
  Q 80.82 64.51 82.55 64.51
  L 101.21 64.50
  A 1.17 1.15 -11.5 0 1 102.28 65.20
  C 106.15 74.25 115.80 80.39 125.43 79.50
  Q 136.73 78.47 143.16 69.91
  C 147.35 64.33 148.78 56.83 146.86 50.08
  Q 143.74 39.09 133.05 34.17
  C 131.42 33.43 129.54 33.20 127.78 32.75
  Q 126.68 32.47 125.56 32.47
  Q 109.64 32.37 102.34 46.56
  A 1.74 1.72 -76.0 0 1 100.79 47.50
  L 82.80 47.49
  Q 80.50 47.49 80.64 45.20
  Q 80.84 42.09 82.25 38.87
  Q 90.43 20.31 108.54 13.83
  C 139.34 2.80 171.07 26.18 168.97 59.14
  C 167.55 81.50 149.53 99.23 127.30 100.78
  Z"
/>
<path fill="#ffffff" d="
  M 245.9552 55.5009
  A 25.93 25.93 0.0 0 1 220.1613 81.5664
  L 215.1014 81.5929
  A 25.93 25.93 0.0 0 1 189.0360 55.7990
  L 189.0048 49.8391
  A 25.93 25.93 0.0 0 1 214.7987 23.7736
  L 219.8586 23.7471
  A 25.93 25.93 0.0 0 1 245.9240 49.5410
  L 245.9552 55.5009
  Z
  M 216.50 69.45
  C 229.95 70.28 232.60 55.42 229.94 45.70
  Q 227.95 38.44 221.82 36.50
  C 216.04 34.66 209.41 36.48 206.40 42.13
  C 201.48 51.34 203.50 68.64 216.50 69.45
  Z"
/>
<rect fill="#ffffff" x="-7.39" y="-29.05" transform="translate(325.52,52.68) rotate(-0.1)" width="14.78" height="58.10" rx="6.72"/>
<path fill="#ffffff" d="
  M 254.78 31.27
  A 6.85 6.85 0.0 0 1 261.60 24.39
  L 281.68 24.32
  A 27.47 26.01 -0.2 0 1 309.24 50.24
  L 309.26 54.84
  A 27.47 26.01 -0.2 0 1 281.88 80.94
  L 261.80 81.01
  A 6.85 6.85 0.0 0 1 254.93 74.18
  L 254.78 31.27
  Z
  M 269.64 36.68
  L 269.80 68.72
  A 0.35 0.35 0.0 0 0 270.16 69.07
  L 279.45 69.02
  A 14.58 14.24 -0.3 0 0 293.95 54.71
  L 293.93 50.45
  A 14.58 14.24 -0.3 0 0 279.27 36.28
  L 269.98 36.33
  A 0.35 0.35 0.0 0 0 269.64 36.68
  Z"
/>
<path fill="#ffffff" d="
  M 355.86 36.42
  Q 350.36 36.37 344.23 36.42
  Q 337.58 36.48 337.79 29.94
  C 337.92 25.89 340.58 24.22 344.21 24.25
  Q 363.00 24.38 381.18 24.23
  C 385.63 24.19 390.02 24.47 390.01 30.32
  Q 390.00 36.29 383.94 36.36
  Q 377.68 36.44 371.87 36.38
  A 0.58 0.58 0.0 0 0 371.29 36.96
  Q 371.15 55.23 371.32 72.49
  Q 371.35 76.28 370.40 78.25
  C 367.58 84.10 356.53 82.68 356.51 74.92
  Q 356.46 55.98 356.50 37.07
  Q 356.51 36.42 355.86 36.42
  Z"
/>
<path fill="#ffffff" d="
  M 409.01 36.42
  L 409.02 45.81
  Q 409.02 46.53 409.74 46.52
  Q 420.23 46.43 428.65 46.56
  Q 433.00 46.63 433.67 50.72
  Q 434.87 57.98 427.55 57.95
  Q 418.47 57.91 409.56 57.94
  Q 409.02 57.94 409.02 58.49
  L 409.01 68.98
  Q 409.01 69.55 409.59 69.55
  Q 419.50 69.54 429.44 69.57
  Q 436.35 69.59 435.53 76.50
  Q 435.00 80.94 430.19 80.97
  Q 418.00 81.04 402.21 80.97
  C 394.53 80.94 394.87 75.06 394.87 68.57
  Q 394.87 51.50 394.93 36.59
  C 394.95 31.18 394.22 27.07 398.77 25.06
  Q 400.65 24.22 403.21 24.24
  Q 416.85 24.33 430.31 24.34
  C 437.57 24.34 437.65 35.80 429.97 35.78
  Q 419.08 35.74 409.67 35.76
  Q 409.01 35.76 409.01 36.42
  Z"
/>
<circle fill="#eed109" cx="124.09" cy="56.01" r="10.68"/>
</svg>
