<?xml version="1.0" encoding="UTF-8" standalone="no"?>
<!DOCTYPE svg PUBLIC "-//W3C//DTD SVG 1.1//EN" "http://www.w3.org/Graphics/SVG/1.1/DTD/svg11.dtd">
<svg xmlns="http://www.w3.org/2000/svg" version="1.1" viewBox="0.00 0.00 500.00 116.00">
<path fill="#ffffff" d="
  M 127.79 79.25
  C 143.79 76.56 152.52 59.55 145.01 45.28
  C 139.84 35.44 129.26 30.48 118.34 33.22
  Q 107.62 35.90 102.27 46.65
  A 1.45 1.44 -76.6 0 1 100.98 47.45
  L 82.50 47.43
  A 1.84 1.84 0.0 0 1 80.66 45.51
  Q 80.78 42.57 82.02 39.60
  C 84.48 33.69 87.84 28.21 92.44 23.88
  Q 106.94 10.26 126.56 11.21
  C 152.33 12.47 171.99 35.41 168.73 61.44
  Q 166.26 81.16 149.64 92.90
  Q 137.03 101.80 120.54 100.72
  C 102.00 99.51 86.84 87.02 81.07 69.38
  C 80.71 68.29 80.76 66.92 80.82 65.78
  A 1.25 1.25 0.0 0 1 82.07 64.59
  L 101.21 64.55
  A 0.92 0.92 0.0 0 1 102.05 65.06
  Q 107.75 76.54 119.15 79.20
  Q 122.91 80.08 127.79 79.25
  Z"
/>
<path fill="#ffffff" d="
  M 245.9552 55.5009
  A 25.93 25.93 0.0 0 1 220.1613 81.5664
  L 215.1014 81.5929
  A 25.93 25.93 0.0 0 1 189.0360 55.7990
  L 189.0048 49.8391
  A 25.93 25.93 0.0 0 1 214.7987 23.7736
  L 219.8586 23.7471
  A 25.93 25.93 0.0 0 1 245.9240 49.5410
  L 245.9552 55.5009
  Z
  M 216.50 69.45
  C 229.95 70.28 232.60 55.42 229.94 45.70
  Q 227.95 38.44 221.82 36.50
  C 216.04 34.66 209.41 36.48 206.40 42.13
  C 201.48 51.34 203.50 68.64 216.50 69.45
  Z"
/>
<rect fill="#ffffff" x="-7.39" y="-29.05" transform="translate(325.52,52.68) rotate(-0.1)" width="14.78" height="58.10" rx="6.72"/>
<path fill="#ffffff" d="
  M 254.78 31.27
  A 6.85 6.85 0.0 0 1 261.60 24.39
  L 281.68 24.32
  A 27.47 26.01 -0.2 0 1 309.24 50.24
  L 309.26 54.84
  A 27.47 26.01 -0.2 0 1 281.88 80.94
  L 261.80 81.01
  A 6.85 6.85 0.0 0 1 254.93 74.18
  L 254.78 31.27
  Z
  M 269.56 36.79
  L 269.72 68.53
  A 0.52 0.52 0.0 0 0 270.25 69.05
  L 279.47 69.00
  A 14.58 14.24 -0.3 0 0 293.97 54.69
  L 293.95 50.39
  A 14.58 14.24 -0.3 0 0 279.29 36.22
  L 270.07 36.27
  A 0.52 0.52 0.0 0 0 269.56 36.79
  Z"
/>
<path fill="#ffffff" d="
  M 355.86 36.42
  Q 350.36 36.37 344.23 36.42
  Q 337.58 36.48 337.79 29.94
  C 337.92 25.89 340.58 24.22 344.21 24.25
  Q 363.00 24.38 381.18 24.23
  C 385.63 24.19 390.02 24.47 390.01 30.32
  Q 390.00 36.29 383.94 36.36
  Q 377.68 36.44 371.87 36.38
  A 0.58 0.58 0.0 0 0 371.29 36.96
  Q 371.15 55.23 371.32 72.49
  Q 371.35 76.28 370.40 78.25
  C 367.58 84.10 356.53 82.68 356.51 74.92
  Q 356.46 55.98 356.50 37.07
  Q 356.51 36.42 355.86 36.42
  Z"
/>
<path fill="#ffffff" d="
  M 409.01 36.42
  L 409.02 45.81
  Q 409.02 46.53 409.74 46.52
  Q 420.24 46.43 428.59 46.56
  Q 433.05 46.63 433.70 50.76
  Q 434.83 57.98 427.57 57.95
  Q 418.46 57.91 409.56 57.94
  Q 409.02 57.94 409.02 58.49
  L 409.01 68.97
  Q 409.01 69.55 409.59 69.55
  Q 419.48 69.54 429.34 69.56
  Q 436.39 69.58 435.55 76.52
  Q 435.02 80.92 430.03 80.96
  Q 407.57 81.14 400.95 80.84
  C 394.52 80.54 394.87 74.32 394.86 68.57
  Q 394.86 51.54 394.92 36.59
  C 394.95 31.18 394.22 27.07 398.77 25.06
  Q 400.65 24.22 403.21 24.24
  Q 416.85 24.33 430.31 24.34
  C 437.57 24.34 437.65 35.80 429.97 35.78
  Q 419.08 35.74 409.67 35.76
  Q 409.01 35.76 409.01 36.42
  Z"
/>
<circle fill="#ffffff" cx="124.09" cy="56.01" r="10.64"/>
</svg>
